<?xml version="1.0" standalone="no"?>
<!DOCTYPE svg PUBLIC "-//W3C//DTD SVG 20010904//EN"
 "http://www.w3.org/TR/2001/REC-SVG-20010904/DTD/svg10.dtd">
<svg version="1.0" xmlns="http://www.w3.org/2000/svg"
 width="700.000000pt" height="700.000000pt" viewBox="0 0 700.000000 700.000000"
 preserveAspectRatio="xMidYMid meet">
<metadata>
Created by potrace 1.14, written by Peter Selinger 2001-2017
</metadata>
<g transform="translate(0.000000,700.000000) scale(0.100000,-0.100000)"
fill="#000000" stroke="none">
<path d="M3405 5434 c-157 -24 -234 -60 -427 -204 -48 -36 -100 -74 -115 -85
-96 -69 -461 -338 -473 -348 -8 -7 -199 -147 -425 -312 -466 -340 -527 -395
-597 -532 -87 -169 -81 -75 -82 -1401 -1 -645 1 -1176 4 -1180 3 -4 321 -7
708 -7 617 0 702 2 703 15 0 8 1 436 1 951 l1 937 196 143 c108 78 210 153
226 166 41 32 31 24 213 157 l162 118 115 -84 c63 -45 130 -94 148 -108 19
-14 117 -86 218 -160 101 -74 189 -139 196 -145 6 -5 36 -27 66 -48 l54 -38 0
-950 c0 -522 -3 -949 -6 -950 -3 -1 -357 -2 -786 -4 -429 -1 -783 -3 -787 -4
-5 0 -8 -257 -8 -571 l0 -570 108 0 c577 -2 1467 2 1471 6 4 3 6 257 6 564 0
308 4 563 9 567 4 4 321 9 704 9 383 1 699 2 702 3 3 0 5 531 5 1179 l-1 1177
-23 79 c-41 148 -125 281 -232 367 -36 29 -486 361 -1154 850 -66 49 -124 92
-130 96 -32 26 -238 175 -278 202 -100 67 -238 115 -346 120 -30 1 -57 3 -60
5 -3 1 -42 -3 -86 -10z"/>
</g>
</svg>
